<?xml version="1.0" encoding="utf-8"?>
<!-- Generator: Adobe Illustrator 16.0.0, SVG Export Plug-In . SVG Version: 6.00 Build 0)  -->
<!DOCTYPE svg PUBLIC "-//W3C//DTD SVG 1.1//EN" "http://www.w3.org/Graphics/SVG/1.1/DTD/svg11.dtd" [
	<!ENTITY ns_extend "http://ns.adobe.com/Extensibility/1.0/">
	<!ENTITY ns_ai "http://ns.adobe.com/AdobeIllustrator/10.0/">
	<!ENTITY ns_graphs "http://ns.adobe.com/Graphs/1.0/">
	<!ENTITY ns_vars "http://ns.adobe.com/Variables/1.0/">
	<!ENTITY ns_imrep "http://ns.adobe.com/ImageReplacement/1.0/">
	<!ENTITY ns_sfw "http://ns.adobe.com/SaveForWeb/1.0/">
	<!ENTITY ns_custom "http://ns.adobe.com/GenericCustomNamespace/1.0/">
	<!ENTITY ns_adobe_xpath "http://ns.adobe.com/XPath/1.0/">
]>
<svg version="1.1" id="Layer_1" xmlns:x="&ns_extend;" xmlns:i="&ns_ai;" xmlns:graph="&ns_graphs;"
	 xmlns="http://www.w3.org/2000/svg" xmlns:xlink="http://www.w3.org/1999/xlink" x="0px" y="0px" width="20px" height="20px"
	 viewBox="0 0 20 20" enable-background="new 0 0 20 20" xml:space="preserve">
<metadata>
	<sfw  xmlns="&ns_sfw;">
		<slices></slices>
		<sliceSourceBounds  height="13.696" width="13.992" y="0.436" x="-0.562" bottomLeftOrigin="true"></sliceSourceBounds>
	</sfw>
</metadata>
<g>
	<path d="M7.78,10.195l1.098,1.103l0.063,0.077l5.201,5.21c0.633,0.638,1.665,0.638,2.302,0.004c0.638-0.637,0.639-1.67,0.002-2.307
		l-4.063-4.07l4.07-4.063c0.637-0.635,0.637-1.666,0.002-2.304c-0.317-0.317-0.732-0.477-1.147-0.477
		c-0.419,0-0.834,0.158-1.153,0.475L9.438,8.549L9.435,8.545L7.78,10.195z"/>
	<path d="M12.09,10.234l-1.1-1.102l-0.062-0.076L5.727,3.845C5.093,3.209,4.062,3.209,3.425,3.843
		C2.787,4.479,2.786,5.512,3.422,6.149l4.064,4.069l-4.071,4.064c-0.636,0.635-0.636,1.667-0.001,2.303
		c0.318,0.318,0.734,0.478,1.148,0.478c0.417,0,0.833-0.158,1.152-0.474l4.716-4.706l0.004,0.004L12.09,10.234z"/>
</g>
</svg>
