<?xml version="1.0" encoding="utf-8"?>
<!-- Generator: Adobe Illustrator 16.0.0, SVG Export Plug-In . SVG Version: 6.00 Build 0)  -->
<!DOCTYPE svg PUBLIC "-//W3C//DTD SVG 1.1//EN" "http://www.w3.org/Graphics/SVG/1.1/DTD/svg11.dtd" [
	<!ENTITY ns_extend "http://ns.adobe.com/Extensibility/1.0/">
	<!ENTITY ns_ai "http://ns.adobe.com/AdobeIllustrator/10.0/">
	<!ENTITY ns_graphs "http://ns.adobe.com/Graphs/1.0/">
	<!ENTITY ns_vars "http://ns.adobe.com/Variables/1.0/">
	<!ENTITY ns_imrep "http://ns.adobe.com/ImageReplacement/1.0/">
	<!ENTITY ns_sfw "http://ns.adobe.com/SaveForWeb/1.0/">
	<!ENTITY ns_custom "http://ns.adobe.com/GenericCustomNamespace/1.0/">
	<!ENTITY ns_adobe_xpath "http://ns.adobe.com/XPath/1.0/">
]>
<svg version="1.1" id="Your_Icon" xmlns:x="&ns_extend;" xmlns:i="&ns_ai;" xmlns:graph="&ns_graphs;"
	 xmlns="http://www.w3.org/2000/svg" xmlns:xlink="http://www.w3.org/1999/xlink" x="0px" y="0px" width="14px" height="14px"
	 viewBox="43 43 14 14" enable-background="new 43 43 14 14" xml:space="preserve">
<metadata>
	<sfw  xmlns="&ns_sfw;">
		<slices></slices>
		<sliceSourceBounds  height="9.859" width="13.686" y="13.57" x="2.639" bottomLeftOrigin="true"></sliceSourceBounds>
	</sfw>
</metadata>
<path fill="#FFFFFF" d="M53.204,49.677l-3.219,2.468l-3.229-2.458l-3.607,3.586l0.003,1.09c0,0.314,0.272,0.566,0.607,0.566
	l12.458-0.02c0.335,0,0.606-0.252,0.606-0.568l-0.002-1.088L53.204,49.677z"/>
<polygon fill="#FFFFFF" points="45.991,49.104 43.14,46.935 43.148,51.932 "/>
<polygon fill="#FFFFFF" points="53.97,49.092 56.821,51.91 56.813,46.915 "/>
<g>
	<path fill="#FFFFFF" d="M56.204,45.071l-12.46,0.019c-0.334,0-0.606,0.254-0.605,0.569v0.243l6.845,5.21l6.829-5.231v-0.243
		C56.809,45.323,56.538,45.07,56.204,45.071z"/>
</g>
</svg>
