<?xml version="1.0" encoding="utf-8"?>
<!-- Generator: Adobe Illustrator 16.0.0, SVG Export Plug-In . SVG Version: 6.00 Build 0)  -->
<!DOCTYPE svg PUBLIC "-//W3C//DTD SVG 1.1//EN" "http://www.w3.org/Graphics/SVG/1.1/DTD/svg11.dtd" [
	<!ENTITY ns_extend "http://ns.adobe.com/Extensibility/1.0/">
	<!ENTITY ns_ai "http://ns.adobe.com/AdobeIllustrator/10.0/">
	<!ENTITY ns_graphs "http://ns.adobe.com/Graphs/1.0/">
	<!ENTITY ns_vars "http://ns.adobe.com/Variables/1.0/">
	<!ENTITY ns_imrep "http://ns.adobe.com/ImageReplacement/1.0/">
	<!ENTITY ns_sfw "http://ns.adobe.com/SaveForWeb/1.0/">
	<!ENTITY ns_custom "http://ns.adobe.com/GenericCustomNamespace/1.0/">
	<!ENTITY ns_adobe_xpath "http://ns.adobe.com/XPath/1.0/">
]>
<svg version="1.1" id="Your_Icon" xmlns:x="&ns_extend;" xmlns:i="&ns_ai;" xmlns:graph="&ns_graphs;"
	 xmlns="http://www.w3.org/2000/svg" xmlns:xlink="http://www.w3.org/1999/xlink" x="0px" y="0px" width="14px" height="14px"
	 viewBox="43 43 14 14" enable-background="new 43 43 14 14" xml:space="preserve">
<metadata>
	<sfw  xmlns="&ns_sfw;">
		<slices></slices>
		<sliceSourceBounds  height="12.303" width="13.617" y="12.348" x="2.692" bottomLeftOrigin="true"></sliceSourceBounds>
	</sfw>
</metadata>
<g>
	<circle fill="#FFFFFF" cx="45.188" cy="46.232" r="0.53"/>
	<circle fill="#FFFFFF" cx="47.38" cy="45.91" r="0.53"/>
	<circle fill="#FFFFFF" cx="52.574" cy="45.95" r="0.529"/>
	<path fill="#FFFFFF" d="M53.358,49.082c1.021,0.108,1.915-0.422,1.995-1.183l-3.702-0.39
		C51.571,48.271,52.335,48.974,53.358,49.082z"/>
	<circle fill="#FFFFFF" cx="54.775" cy="46.182" r="0.53"/>
	<circle fill="#FFFFFF" cx="47.38" cy="45.91" r="0.53"/>
	<circle fill="#FFFFFF" cx="45.188" cy="46.232" r="0.53"/>
	<path fill="#FFFFFF" d="M53.358,49.082c1.021,0.108,1.915-0.422,1.995-1.183l-3.702-0.39
		C51.571,48.271,52.335,48.974,53.358,49.082z"/>
	<circle fill="#FFFFFF" cx="54.775" cy="46.182" r="0.53"/>
	<circle fill="#FFFFFF" cx="52.574" cy="45.95" r="0.529"/>
	<path fill="#FFFFFF" d="M46.972,49.021c-0.081,0.02-0.163,0.037-0.247,0.05c-1.017,0.149-1.932-0.344-2.043-1.102l3.684-0.54
		c0.046,0.318-0.056,0.632-0.268,0.901c0.449-0.188,0.937-0.303,1.447-0.331c0.128-0.435,0.167-0.903,0.098-1.38
		c-0.26-1.771-1.907-2.996-3.678-2.736c-1.771,0.259-2.997,1.907-2.736,3.678c0.212,1.444,1.345,2.523,2.714,2.733
		C46.202,49.807,46.553,49.375,46.972,49.021z M47.302,45.386c0.29-0.042,0.559,0.157,0.601,0.447
		c0.042,0.289-0.157,0.56-0.447,0.601c-0.289,0.043-0.558-0.157-0.6-0.447C46.813,45.697,47.013,45.428,47.302,45.386z
		 M45.112,45.708c0.29-0.042,0.558,0.159,0.601,0.447c0.042,0.29-0.158,0.558-0.447,0.6c-0.29,0.043-0.559-0.157-0.601-0.446
		C44.623,46.019,44.822,45.75,45.112,45.708z"/>
	<path fill="#FFFFFF" d="M53.906,43.867c-1.78-0.188-3.375,1.104-3.564,2.884c-0.046,0.451,0.003,0.889,0.128,1.296
		c1.381,0.221,2.542,1.09,3.166,2.282c1.609-0.033,2.981-1.257,3.154-2.9C56.979,45.649,55.687,44.054,53.906,43.867z
		 M54.249,46.126c0.03-0.291,0.29-0.501,0.583-0.472c0.29,0.031,0.5,0.292,0.471,0.582c-0.03,0.291-0.291,0.503-0.582,0.471
		C54.429,46.677,54.218,46.417,54.249,46.126z M52.048,45.895c0.029-0.291,0.289-0.501,0.581-0.472
		c0.291,0.031,0.501,0.292,0.472,0.583c-0.03,0.292-0.291,0.503-0.582,0.472C52.227,46.446,52.017,46.185,52.048,45.895z
		 M53.358,49.082c-1.023-0.108-1.787-0.812-1.707-1.573l3.702,0.39C55.273,48.66,54.38,49.19,53.358,49.082z"/>
	<path fill="#FFFFFF" d="M49.709,56.151c2.104,0.028,3.83-1.655,3.857-3.759s-1.656-3.83-3.759-3.857
		c-2.103-0.027-3.83,1.656-3.857,3.759C45.922,54.398,47.605,56.123,49.709,56.151z M51.082,50.526
		c0.345,0.005,0.618,0.286,0.614,0.631c-0.004,0.344-0.286,0.618-0.628,0.615c-0.346-0.006-0.621-0.286-0.616-0.632
		C50.458,50.799,50.739,50.523,51.082,50.526z M51.936,53.096c-0.012,0.898-1.001,1.616-2.208,1.6
		c-1.209-0.016-2.178-0.757-2.166-1.656L51.936,53.096z M48.481,50.492c0.343,0.005,0.618,0.287,0.613,0.632
		c-0.004,0.344-0.287,0.619-0.629,0.613c-0.344-0.005-0.62-0.286-0.614-0.63C47.855,50.765,48.137,50.489,48.481,50.492z"/>
</g>
</svg>
