<?xml version="1.0" encoding="utf-8"?>
<!-- Generator: Adobe Illustrator 16.0.0, SVG Export Plug-In . SVG Version: 6.00 Build 0)  -->
<!DOCTYPE svg PUBLIC "-//W3C//DTD SVG 1.1//EN" "http://www.w3.org/Graphics/SVG/1.1/DTD/svg11.dtd" [
	<!ENTITY ns_extend "http://ns.adobe.com/Extensibility/1.0/">
	<!ENTITY ns_ai "http://ns.adobe.com/AdobeIllustrator/10.0/">
	<!ENTITY ns_graphs "http://ns.adobe.com/Graphs/1.0/">
	<!ENTITY ns_vars "http://ns.adobe.com/Variables/1.0/">
	<!ENTITY ns_imrep "http://ns.adobe.com/ImageReplacement/1.0/">
	<!ENTITY ns_sfw "http://ns.adobe.com/SaveForWeb/1.0/">
	<!ENTITY ns_custom "http://ns.adobe.com/GenericCustomNamespace/1.0/">
	<!ENTITY ns_adobe_xpath "http://ns.adobe.com/XPath/1.0/">
]>
<svg version="1.1" id="Your_Icon" xmlns:x="&ns_extend;" xmlns:i="&ns_ai;" xmlns:graph="&ns_graphs;"
	 xmlns="http://www.w3.org/2000/svg" xmlns:xlink="http://www.w3.org/1999/xlink" x="0px" y="0px" width="14px" height="14px"
	 viewBox="0 0 14 14" enable-background="new 0 0 14 14" xml:space="preserve">
<metadata>
	<sfw  xmlns="&ns_sfw;">
		<slices></slices>
		<sliceSourceBounds  width="100" height="125.569" x="-48.969" y="-100.657" bottomLeftOrigin="true"></sliceSourceBounds>
	</sfw>
</metadata>
<g>
	<g>
		<defs>
			<rect id="SVGID_1_" x="-51.469" y="26.157" width="100" height="100"/>
		</defs>
		<clipPath id="SVGID_2_">
			<use xlink:href="#SVGID_1_"  overflow="visible"/>
		</clipPath>
		<polyline clip-path="url(#SVGID_2_)" fill="none" stroke="#231F20" stroke-width="5" stroke-miterlimit="10" points="
			-21.469,104.449 -29.636,104.449 -29.636,32.448 14.698,32.448 26.698,44.282 26.698,104.449 5.531,104.449 		"/>
	</g>
	<line fill="none" stroke="#231F20" stroke-width="3" stroke-miterlimit="10" x1="-17.969" y1="55.948" x2="14.031" y2="55.948"/>
	<line fill="none" stroke="#231F20" stroke-width="3" stroke-miterlimit="10" x1="1.198" y1="66.782" x2="14.031" y2="66.782"/>
	<polyline fill="#231F20" points="14.698,32.448 14.698,44.116 26.698,44.282 	"/>
	<polyline fill="none" stroke="#231F20" stroke-width="2" stroke-miterlimit="10" points="14.698,32.448 14.698,44.116 
		26.698,44.282 	"/>
	<g>
		<defs>
			<rect id="SVGID_3_" x="-51.469" y="26.157" width="100" height="100"/>
		</defs>
		<clipPath id="SVGID_4_">
			<use xlink:href="#SVGID_3_"  overflow="visible"/>
		</clipPath>
		<path clip-path="url(#SVGID_4_)" fill="#231F20" d="M-7.969,104.763c-3.82,0-7.054-0.894-8.167-2.13v17.233l8.334-6l8,6v-17.233
			C-0.915,103.869-4.149,104.763-7.969,104.763"/>
		<path clip-path="url(#SVGID_4_)" fill="none" stroke="#231F20" stroke-miterlimit="10" d="M-7.969,104.763
			c-3.82,0-7.054-0.894-8.167-2.13v17.233l8.334-6l8,6v-17.233C-0.915,103.869-4.149,104.763-7.969,104.763z"/>
		<path clip-path="url(#SVGID_4_)" d="M4.078,83.727c0-2.404-1.95-4.354-4.354-4.354c0-2.404-1.95-4.354-4.354-4.354
			c-1.27,0-2.402,0.553-3.198,1.42c-0.796-0.867-1.929-1.42-3.198-1.42c-2.405,0-4.354,1.949-4.354,4.354
			c-2.405,0-4.355,1.95-4.355,4.354c0,1.252,0.535,2.37,1.38,3.166c-1.004,0.797-1.661,2.015-1.661,3.396
			c0,2.405,1.95,4.354,4.354,4.354c0,2.404,1.95,4.354,4.354,4.354c1.27,0,2.402-0.552,3.198-1.419
			c0.796,0.867,1.929,1.419,3.198,1.419c2.405,0,4.354-1.949,4.354-4.354c2.405,0,4.354-1.949,4.354-4.354
			c0-1.251-0.534-2.371-1.38-3.165C3.421,86.326,4.078,85.109,4.078,83.727 M-7.969,94.341c-4.05,0-7.333-3.282-7.333-7.333
			c0-4.05,3.283-7.334,7.333-7.334s7.333,3.284,7.333,7.334C-0.636,91.059-3.919,94.341-7.969,94.341"/>
		<path clip-path="url(#SVGID_4_)" fill="none" stroke="#000000" stroke-width="2" stroke-miterlimit="10" d="M4.078,83.727
			c0-2.404-1.95-4.354-4.354-4.354c0-2.404-1.95-4.354-4.354-4.354c-1.27,0-2.402,0.553-3.198,1.42
			c-0.796-0.867-1.929-1.42-3.198-1.42c-2.405,0-4.354,1.949-4.354,4.354c-2.405,0-4.355,1.95-4.355,4.354
			c0,1.252,0.535,2.37,1.38,3.166c-1.004,0.797-1.661,2.015-1.661,3.396c0,2.405,1.95,4.354,4.354,4.354
			c0,2.404,1.95,4.354,4.354,4.354c1.27,0,2.402-0.552,3.198-1.419c0.796,0.867,1.929,1.419,3.198,1.419
			c2.405,0,4.354-1.949,4.354-4.354c2.405,0,4.354-1.949,4.354-4.354c0-1.251-0.534-2.371-1.38-3.165
			C3.421,86.326,4.078,85.109,4.078,83.727z M-7.969,94.341c-4.05,0-7.333-3.282-7.333-7.333c0-4.05,3.283-7.334,7.333-7.334
			s7.333,3.284,7.333,7.334C-0.636,91.059-3.919,94.341-7.969,94.341z"/>
	</g>
</g>
<polyline fill="none" stroke="#FFFFFF" stroke-width="0.7267" stroke-miterlimit="10" points="4.375,11.416 3.188,11.416 
	3.188,0.951 9.631,0.951 11.375,2.671 11.375,11.416 8.299,11.416 "/>
<line fill="none" stroke="#FFFFFF" stroke-width="0.436" stroke-miterlimit="10" x1="4.883" y1="4.367" x2="9.534" y2="4.367"/>
<line fill="none" stroke="#FFFFFF" stroke-width="0.436" stroke-miterlimit="10" x1="7.669" y1="5.941" x2="9.534" y2="5.941"/>
<polyline fill="#FFFFFF" stroke="#FFFFFF" stroke-width="0.2907" stroke-miterlimit="10" points="9.631,0.951 9.631,2.647 
	11.375,2.671 "/>
<path fill="#FFFFFF" stroke="#FFFFFF" stroke-width="0.1453" stroke-miterlimit="10" d="M6.336,11.461
	c-0.555,0-1.025-0.13-1.187-0.31v2.505l1.211-0.872l1.163,0.872v-2.505C7.362,11.331,6.892,11.461,6.336,11.461z"/>
<path fill="#FFFFFF" stroke="#FFFFFF" stroke-width="0.2907" stroke-miterlimit="10" d="M8.088,8.403
	c0-0.35-0.283-0.633-0.633-0.633c0-0.35-0.283-0.633-0.633-0.633c-0.185,0-0.349,0.081-0.465,0.207
	c-0.116-0.126-0.28-0.207-0.465-0.207c-0.349,0-0.633,0.283-0.633,0.633c-0.35,0-0.633,0.283-0.633,0.633
	c0,0.183,0.078,0.345,0.201,0.461C4.681,8.979,4.585,9.156,4.585,9.357c0,0.35,0.284,0.633,0.633,0.633
	c0,0.35,0.283,0.633,0.633,0.633c0.184,0,0.349-0.08,0.464-0.206c0.116,0.126,0.28,0.206,0.465,0.206
	c0.35,0,0.633-0.283,0.633-0.633c0.35,0,0.633-0.283,0.633-0.633c0-0.182-0.078-0.345-0.201-0.46
	C7.992,8.781,8.088,8.604,8.088,8.403z M6.336,9.946c-0.588,0-1.066-0.477-1.066-1.065s0.478-1.065,1.066-1.065
	c0.589,0,1.066,0.477,1.066,1.065S6.925,9.946,6.336,9.946z"/>
</svg>
