<?xml version="1.0" encoding="utf-8"?>
<!-- Generator: Adobe Illustrator 16.0.0, SVG Export Plug-In . SVG Version: 6.00 Build 0)  -->
<!DOCTYPE svg PUBLIC "-//W3C//DTD SVG 1.1//EN" "http://www.w3.org/Graphics/SVG/1.1/DTD/svg11.dtd" [
	<!ENTITY ns_extend "http://ns.adobe.com/Extensibility/1.0/">
	<!ENTITY ns_ai "http://ns.adobe.com/AdobeIllustrator/10.0/">
	<!ENTITY ns_graphs "http://ns.adobe.com/Graphs/1.0/">
	<!ENTITY ns_vars "http://ns.adobe.com/Variables/1.0/">
	<!ENTITY ns_imrep "http://ns.adobe.com/ImageReplacement/1.0/">
	<!ENTITY ns_sfw "http://ns.adobe.com/SaveForWeb/1.0/">
	<!ENTITY ns_custom "http://ns.adobe.com/GenericCustomNamespace/1.0/">
	<!ENTITY ns_adobe_xpath "http://ns.adobe.com/XPath/1.0/">
]>
<svg version="1.1" id="Your_Icon" xmlns:x="&ns_extend;" xmlns:i="&ns_ai;" xmlns:graph="&ns_graphs;"
	 xmlns="http://www.w3.org/2000/svg" xmlns:xlink="http://www.w3.org/1999/xlink" x="0px" y="0px" width="14px" height="14px"
	 viewBox="43 43 14 14" enable-background="new 43 43 14 14" xml:space="preserve">
<metadata>
	<sfw  xmlns="&ns_sfw;">
		<slices></slices>
		<sliceSourceBounds  height="12.181" width="13.805" y="12.438" x="2.598" bottomLeftOrigin="true"></sliceSourceBounds>
	</sfw>
</metadata>
<g id="Your_Icon_1_">
	<path fill="#FFFFFF" d="M55.278,43.882H44.722c-0.896,0-1.624,0.727-1.624,1.624v5.684c0,0.897,0.728,1.624,1.624,1.624h0.813
		v2.843c0,0.104,0.039,0.208,0.119,0.287c0.158,0.158,0.416,0.159,0.574,0l3.367-3.13h5.684c0.897,0,1.624-0.727,1.624-1.624v-5.684
		C56.902,44.609,56.176,43.882,55.278,43.882z M45.94,46.318h6.496c0.226,0,0.406,0.181,0.406,0.405
		c0,0.225-0.181,0.406-0.406,0.406H45.94c-0.225,0-0.406-0.181-0.406-0.406C45.534,46.5,45.715,46.318,45.94,46.318z M49.188,50.378
		H45.94c-0.225,0-0.406-0.182-0.406-0.406c0-0.224,0.181-0.405,0.406-0.405h3.248c0.224,0,0.406,0.182,0.406,0.405
		C49.594,50.196,49.412,50.378,49.188,50.378z M54.061,48.754H45.94c-0.225,0-0.406-0.182-0.406-0.406
		c0-0.224,0.181-0.405,0.406-0.405h8.121c0.225,0,0.405,0.182,0.405,0.405C54.466,48.572,54.285,48.754,54.061,48.754z"/>
</g>
</svg>
