<?xml version="1.0" encoding="utf-8"?>
<!-- Generator: Adobe Illustrator 16.0.0, SVG Export Plug-In . SVG Version: 6.00 Build 0)  -->
<!DOCTYPE svg PUBLIC "-//W3C//DTD SVG 1.1//EN" "http://www.w3.org/Graphics/SVG/1.1/DTD/svg11.dtd">
<svg version="1.1" id="Layer_1" xmlns="http://www.w3.org/2000/svg" xmlns:xlink="http://www.w3.org/1999/xlink" x="0px" y="0px"
	 width="100px" height="100px" viewBox="0 0 100 100" enable-background="new 0 0 100 100" xml:space="preserve">
<g id="Captions">
</g>
<path d="M9.878,95.211c-3.482-0.002-6.299-2.817-6.301-6.298l0,0V23.394c0.002-3.481,2.817-6.297,6.301-6.299l0,0h33.783l-9.004,9
	h-22.08v60.117l57.471,0.002V74.125l9.002-9l-0.002,23.788c-0.004,3.479-2.818,6.296-6.301,6.3l0,0L9.878,95.211L9.878,95.211z"/>
<path d="M69.75,16.301V5L99,34.25L69.625,63.625v-11.75c0,0-17.23-1.192-29.584,6.458C31.832,63.417,26.936,68.5,22.875,75.375
	c0,0,1.108-18.25,11.608-34.875C47.611,19.716,69.75,16.301,69.75,16.301z"/>
</svg>
