<?xml version="1.0" encoding="utf-8"?>
<!-- Generator: Adobe Illustrator 16.0.0, SVG Export Plug-In . SVG Version: 6.00 Build 0)  -->
<!DOCTYPE svg PUBLIC "-//W3C//DTD SVG 1.1//EN" "http://www.w3.org/Graphics/SVG/1.1/DTD/svg11.dtd">
<svg version="1.1" id="Layer_1" xmlns="http://www.w3.org/2000/svg" xmlns:xlink="http://www.w3.org/1999/xlink" x="0px" y="0px"
	 width="500px" height="500px" viewBox="0 0 500 500" enable-background="new 0 0 500 500" xml:space="preserve">
<path fill="#010101" d="M31.949,431.711c0,20.078,16.264,36.34,36.34,36.34H431.71c20.078,0,36.34-16.262,36.34-36.34V68.29
	c0-20.077-16.262-36.34-36.34-36.34H68.29c-20.077,0-36.34,16.264-36.34,36.34L31.949,431.711L31.949,431.711z"/>
<path fill="#FFFFFF" d="M267.313,113.356c-82.203,0-123.654,58.936-123.654,108.087c0,29.761,11.259,56.232,35.424,66.083
	c3.961,1.636,7.515,0.063,8.669-4.319c0.794-3.025,2.686-10.692,3.532-13.889c1.152-4.339,0.704-5.852-2.492-9.643
	c-6.968-8.215-11.43-18.851-11.43-33.93c0-43.716,32.715-82.864,85.185-82.864c46.467,0,71.992,28.395,71.992,66.3
	c0,49.888-22.079,91.997-54.848,91.997c-18.1,0-31.642-14.961-27.313-33.324c5.2-21.925,15.273-45.569,15.273-61.405
	c0-14.157-7.61-25.97-23.332-25.97c-18.502,0-33.368,19.144-33.368,44.783c0,16.332,5.521,27.379,5.521,27.379
	s-18.936,80.231-22.259,94.283c-6.604,27.985-0.993,62.275-0.516,65.734c0.279,2.061,2.921,2.552,4.122,1.002
	c1.692-2.231,23.744-29.43,31.227-56.621c2.127-7.694,12.172-47.552,12.172-47.552c6.013,11.472,23.583,21.555,42.265,21.555
	c55.612,0,93.352-50.707,93.352-118.567C376.841,161.156,333.372,113.356,267.313,113.356z"/>
</svg>
