<?xml version="1.0" encoding="utf-8"?>
<!-- Generator: Adobe Illustrator 16.0.0, SVG Export Plug-In . SVG Version: 6.00 Build 0)  -->
<!DOCTYPE svg PUBLIC "-//W3C//DTD SVG 1.1//EN" "http://www.w3.org/Graphics/SVG/1.1/DTD/svg11.dtd">
<svg version="1.1" id="Layer_1" xmlns="http://www.w3.org/2000/svg" xmlns:xlink="http://www.w3.org/1999/xlink" x="0px" y="0px"
	 width="26px" height="26px" viewBox="0 0 26 26" enable-background="new 0 0 26 26" xml:space="preserve">
<path fill="#FFFFFF" d="M13,13.553c-1.08,0-6.648-4.486-6.648-4.486V8.573c0-0.611,0.497-1.107,1.107-1.107h11.083
	c0.611,0,1.107,0.497,1.107,1.107l-0.01,0.554C19.64,9.127,14.133,13.553,13,13.553z M13,15.074c1.185,0,6.64-4.288,6.64-4.288
	l0.01,6.64c0,0.609-0.496,1.107-1.107,1.107H7.458c-0.611,0-1.108-0.498-1.108-1.107l0.009-6.64
	C6.359,10.786,11.92,15.074,13,15.074z"/>
</svg>
