<?xml version="1.0" encoding="utf-8"?>
<!-- Generator: Adobe Illustrator 16.0.0, SVG Export Plug-In . SVG Version: 6.00 Build 0)  -->
<!DOCTYPE svg PUBLIC "-//W3C//DTD SVG 1.1//EN" "http://www.w3.org/Graphics/SVG/1.1/DTD/svg11.dtd">
<svg version="1.1" id="Layer_1" xmlns="http://www.w3.org/2000/svg" xmlns:xlink="http://www.w3.org/1999/xlink" x="0px" y="0px"
	 width="500px" height="500px" viewBox="0 0 500 500" enable-background="new 0 0 500 500" xml:space="preserve">
<path fill="#010101" d="M31.949,431.711c0,20.078,16.264,36.34,36.34,36.34H431.71c20.078,0,36.34-16.262,36.34-36.34V68.29
	c0-20.077-16.262-36.34-36.34-36.34H68.29c-20.077,0-36.34,16.264-36.34,36.34L31.949,431.711L31.949,431.711z"/>
<path fill="#FFFFFF" d="M413.479,148.601c-12.018,5.341-24.953,8.945-38.525,10.56c13.856-8.297,24.487-21.442,29.496-37.114
	c-12.963,7.693-27.313,13.274-42.595,16.288c-12.237-13.034-29.674-21.188-48.961-21.188c-37.041,0-67.078,30.035-67.078,67.083
	c0,5.25,0.589,10.364,1.737,15.284c-55.749-2.8-105.182-29.504-138.27-70.09c-5.774,9.903-9.075,21.427-9.075,33.729
	c0,23.274,11.836,43.808,29.835,55.831c-10.987-0.35-21.338-3.371-30.379-8.394c-0.006,0.278-0.006,0.564-0.006,0.85
	c0,32.498,23.12,59.604,53.81,65.773c-5.626,1.523-11.556,2.347-17.675,2.347c-4.324,0-8.529-0.415-12.621-1.205
	c8.538,26.645,33.309,46.043,62.657,46.582c-22.957,17.991-51.871,28.719-83.306,28.719c-5.412,0-10.753-0.317-16.003-0.938
	c29.692,19.042,64.951,30.138,102.829,30.138c123.387,0,190.853-102.213,190.853-190.854c0-2.91-0.058-5.807-0.188-8.691
	C393.122,173.872,404.495,162.05,413.479,148.601z"/>
</svg>
